<?xml version="1.0" encoding="UTF-8" standalone="no"?>
<!DOCTYPE svg PUBLIC "-//W3C//DTD SVG 1.1//EN" "http://www.w3.org/Graphics/SVG/1.1/DTD/svg11.dtd">
<svg width="100%" height="100%" viewBox="0 0 512 512" version="1.1" xmlns="http://www.w3.org/2000/svg" xmlns:xlink="http://www.w3.org/1999/xlink" xml:space="preserve" xmlns:serif="http://www.serif.com/" style="fill-rule:evenodd;clip-rule:evenodd;stroke-linejoin:round;stroke-miterlimit:2;">
    <g id="V1" transform="matrix(1.001957,0,0,1.147982,-643.25636,2.295964)">
        <rect x="642" y="-2" width="511" height="446" style="fill:none;"/>
        <g transform="matrix(0.844634,0,0,0.751472,689.451182,34.754635)">
            <path d="M537,21.214L537,476.786C537,507.812 511.324,533 479.698,533L15.302,533C-16.324,533 -42,507.812 -42,476.786L-42,21.214C-42,-9.812 -16.324,-35 15.302,-35L479.698,-35C511.324,-35 537,-9.812 537,21.214Z"/>
        </g>
        <g transform="matrix(0.842878,0,0,0.730901,653.389733,55.769405)">
            <text x="13px" y="426px" style="font-family:'PingFangSC-Regular', 'PingFang SC', sans-serif;font-size:552.834px;fill:white;">读</text>
        </g>
    </g>
</svg>
